<svg xmlns="http://www.w3.org/2000/svg" version="1.1" xmlns:xlink="http://www.w3.org/1999/xlink" xmlns:svgjs="http://svgjs.dev/svgjs" viewBox="0 0 1920 1080"><rect width="1920" height="1080" fill="#e1e1e1"></rect><g transform="matrix(1.15,0,0,1.15,-134.92476768493634,-81)"><path d="M0,-1080C10.0526091772363,-1007.7978727746223,80.24426474300351,-805.5806738615892,60.31565506341781,-646.7872366477336C40.3870453838321,-487.99379943387805,-105.70960450532681,-271.266624977839,-119.57165807751423,-127.23937671686662C-133.43371164970165,16.78787154410577,-42.53793344815729,53.225210821018976,-22.856666369706744,217.3762529181007C-3.1753992912561984,381.5272950151824,-18.594666230360925,679.1963562559415,-1.484055606810955,857.6668758656239C15.626555016739015,1036.1373954753062,70.30042978958566,1135.2008535612292,79.80699737159307,1288.1993705761952C89.31356495360048,1441.1978875911611,68.85651611383236,1630.357873051452,55.55534988523351,1775.6579779554195C42.254183656634666,1920.9580828593869,9.259224980872252,2095.942996325903,0,2160L 1920 2160 L 1920 -1080 Z" fill="url(&quot;#SvgjsLinearGradient1066&quot;)"></path><path d="M320,-1080C308.9160243174602,-972.106184107924,254.67762839810538,-629.9928073886457,253.49614590476125,-432.6371046475442C252.31466341141711,-235.28140190644274,294.59638568550815,-69.08207709506203,312.91110503993514,104.13421644660897C331.2258243943621,277.35050998828,380.1732478401016,435.22563230625167,363.3844620313231,606.6606566024818C346.59567622254457,778.095680898712,238.79787313266758,981.2599633575695,212.17839018726391,1132.7443622239896C185.55890724186025,1284.2287610904095,185.6972960567785,1344.3577768383336,203.6675643589012,1515.567049801002C221.63783266102388,1686.7763227636704,300.6112607264835,2052.594508300167,320,2160L 1920 2160 L 1920 -1080 Z" fill="url(&quot;#SvgjsLinearGradient1067&quot;)"></path><path d="M640,-1080C655.9804343849487,-1010.4557325688138,719.5115253291704,-854.954315072443,735.8826063096924,-662.734395412883C752.2536872902144,-470.51447575332304,757.7445551410126,-136.2173720591573,738.226485883132,73.3195179573602C718.7084166252514,282.8564079738777,635.2954410096095,423.1466550031828,618.7741907624086,594.4869446862219C602.2529405152077,765.8272343692611,627.8125492086666,920.6769537825984,639.0989843999263,1101.3612560555948C650.385419591186,1282.0455583285911,686.3426326432876,1502.1529676667997,686.4928019099666,1678.5927583242005C686.6429711766456,1855.0325489816014,647.7488003183278,2079.7654597207,640,2160L 1920 2160 L 1920 -1080 Z" fill="url(&quot;#SvgjsLinearGradient1068&quot;)"></path><path d="M960,-1080C968.7450258611703,-1003.7495239465961,994.1177494556155,-768.447827191008,1012.4701551670219,-622.4971436795764C1030.8225608784282,-476.54646016814485,1076.7409572136712,-342.72822721044514,1070.1144342684386,-204.29589893141053C1063.487911323206,-65.86357065237593,1007.1594869836247,81.69041482507082,972.7110174956267,208.0968259946312C938.2625480076288,334.50323716419155,867.2610341907463,442.6375920497068,863.4236173404508,554.1425680859517C859.5862004901554,665.6475441221965,937.4889521746799,764.0584352742239,949.6865163938544,877.1266822121003C961.8840806130289,990.1949291499766,940.264213137083,1074.8321021915829,936.6090026554982,1232.55204971321C932.9537921739135,1390.271997234837,923.8567539469291,1668.8717089607317,927.755253504346,1823.4463673418634C931.6537530617629,1978.021025722995,954.6258755840577,2103.9077278903105,960,2160L 1920 2160 L 1920 -1080 Z" fill="url(&quot;#SvgjsLinearGradient1069&quot;)"></path><path d="M1280,-1080C1297.7815718013312,-925.3836543446873,1373.5712290690271,-414.91231607169345,1386.689430807988,-152.3019260681238C1399.8076325469488,110.30846393544584,1358.0532819975074,226.96765658079534,1358.7092104337653,495.6623400214179C1359.3651388700232,764.3570234620404,1403.743203164496,1182.4765645791813,1390.6250014255352,1459.8661745756117C1377.5067996865744,1737.255784572042,1298.4375002375891,2043.3110290959353,1280,2160L 1920 2160 L 1920 -1080 Z" fill="url(&quot;#SvgjsLinearGradient1070&quot;)"></path><path d="M1600,-1080C1598.8038269838066,-988.5276700588123,1594.4004510477198,-747.5660392181604,1592.8229619028396,-531.1660203528736C1591.2454727579593,-314.7660014875868,1609.3601355096923,-16.551806019430188,1590.5350651307178,218.40011319172115C1571.7099947517434,453.3520324028725,1461.0166224014963,657.7410887119494,1479.872539628993,878.5454949140345C1498.7284568564899,1099.3499011161198,1683.6493251005304,1329.6507995565712,1703.6705684956983,1543.226550404232C1723.6918118908661,1756.802301251893,1617.2784280826163,2057.204425067372,1600,2160L 1920 2160 L 1920 -1080 Z" fill="url(&quot;#SvgjsLinearGradient1071&quot;)"></path></g><defs><linearGradient x1="0.1" y1="0" x2="0" y2="1" id="SvgjsLinearGradient1066"><stop stop-color="#e1e1e1" offset="0"></stop><stop stop-color="#e1e1e1" offset="0"></stop></linearGradient><linearGradient x1="0.1" y1="0" x2="0" y2="1" id="SvgjsLinearGradient1067"><stop stop-color="#e6e6e6" offset="0"></stop><stop stop-color="#e6e6e6" offset="0.16666666666666666"></stop></linearGradient><linearGradient x1="0.1" y1="0" x2="0" y2="1" id="SvgjsLinearGradient1068"><stop stop-color="#ebebeb" offset="0"></stop><stop stop-color="#ebebeb" offset="0.3333333333333333"></stop></linearGradient><linearGradient x1="0.1" y1="0" x2="0" y2="1" id="SvgjsLinearGradient1069"><stop stop-color="#f0f0f0" offset="0"></stop><stop stop-color="#f0f0f0" offset="0.5"></stop></linearGradient><linearGradient x1="0.1" y1="0" x2="0" y2="1" id="SvgjsLinearGradient1070"><stop stop-color="#f5f5f5" offset="0"></stop><stop stop-color="#f5f5f5" offset="0.6666666666666666"></stop></linearGradient><linearGradient x1="0.1" y1="0" x2="0" y2="1" id="SvgjsLinearGradient1071"><stop stop-color="#fafafa" offset="0"></stop><stop stop-color="#fafafa" offset="0.8333333333333334"></stop></linearGradient></defs></svg>